<svg width="110" height="40" fill="none" xmlns="http://www.w3.org/2000/svg" class="wit-logo--large">
    <title>WIT Fitness</title>
    <g clip-path="url(#clip0)">
    <path d="M20.006 0a20.006 20.006 0 100 40.012 20.006 20.006 0 000-40.012zm9.9 28.132l-4.68 4.68V19.47l-9.604-7.02v20.363l-4.68-4.681V11.044l4.68-4.68L29.9 16.823v11.309h.006zm48.764 5.092h6.452V6.767h-6.458v26.449l.006.008zM68.57 6.767h6.788l-6.129 26.449h-6.51l-3.137-12.651c-.388 1.591-3.1 12.65-3.1 12.65h-6.52L43.925 6.768h6.616l2.816 13.18c.43-1.836 3.107-13.18 3.107-13.18h6.225l3.101 13.192c.294-1.407 2.78-13.192 2.78-13.192zm19.87 0v6.202h6.794v20.247h6.449V12.977h6.767v-6.21H88.44z"></path></g><defs><clipPath id="clip0"><path fill="#fff" d="M0 0h108.435v40H0z"></path></clipPath></defs></svg>